<svg width="42" height="42" viewBox="0 0 42 42" fill="none" xmlns="http://www.w3.org/2000/svg">
<g id="Instagram">
<g id="Combined-Shape-path" filter="url(#filter0_b_136_490)">
<path d="M1 21C1 9.9543 9.9543 1 21 1C32.0457 1 41 9.9543 41 21C41 32.0457 32.0457 41 21 41C9.9543 41 1 32.0457 1 21Z" fill="url(#paint0_linear_136_490)" fill-opacity="0.4"/>
<path d="M21 0.5C9.67816 0.5 0.5 9.67816 0.5 21C0.5 32.3218 9.67816 41.5 21 41.5C32.3218 41.5 41.5 32.3218 41.5 21C41.5 9.67816 32.3218 0.5 21 0.5Z" stroke="url(#paint1_radial_136_490)"/>
</g>
<path id="Exclude" fill-rule="evenodd" clip-rule="evenodd" d="M21.001 10.3335C18.1041 10.3335 17.7405 10.3462 16.6027 10.3979C15.4671 10.4499 14.692 10.6297 14.0138 10.8935C13.3122 11.1659 12.7171 11.5304 12.1242 12.1235C11.5309 12.7164 11.1664 13.3115 10.8931 14.0129C10.6286 14.6913 10.4486 15.4667 10.3975 16.6018C10.3466 17.7396 10.3333 18.1034 10.3333 21.0003C10.3333 23.8972 10.3462 24.2596 10.3978 25.3974C10.45 26.533 10.6298 27.3081 10.8933 27.9863C11.166 28.6879 11.5304 29.283 12.1236 29.8759C12.7162 30.4693 13.3113 30.8346 14.0125 31.107C14.6911 31.3708 15.4665 31.5506 16.6018 31.6026C17.7396 31.6544 18.1029 31.6671 20.9996 31.6671C23.8968 31.6671 24.2592 31.6544 25.397 31.6026C26.5326 31.5506 27.3086 31.3708 27.9873 31.107C28.6886 30.8346 29.2828 30.4693 29.8755 29.8759C30.4689 29.283 30.8333 28.6879 31.1066 27.9866C31.3689 27.3081 31.5489 26.5328 31.6022 25.3977C31.6533 24.2599 31.6666 23.8972 31.6666 21.0003C31.6666 18.1034 31.6533 17.7398 31.6022 16.602C31.5489 15.4664 31.3689 14.6913 31.1066 14.0131C30.8333 13.3115 30.4689 12.7164 29.8755 12.1235C29.2822 11.5302 28.6888 11.1657 27.9866 10.8935C27.3066 10.6297 26.531 10.4499 25.3955 10.3979C24.2577 10.3462 23.8955 10.3335 20.9976 10.3335H21.001ZM20.0441 12.2556C20.2299 12.2553 20.4298 12.2554 20.6455 12.2555L21.001 12.2556C23.849 12.2556 24.1866 12.2658 25.3113 12.3169C26.3513 12.3645 26.9157 12.5383 27.2917 12.6843C27.7895 12.8776 28.1444 13.1087 28.5175 13.4821C28.8909 13.8554 29.122 14.2109 29.3158 14.7087C29.4618 15.0843 29.6358 15.6487 29.6831 16.6888C29.7342 17.8132 29.7453 18.151 29.7453 20.9977C29.7453 23.8444 29.7342 24.1822 29.6831 25.3066C29.6355 26.3466 29.4618 26.9111 29.3158 27.2866C29.1224 27.7844 28.8909 28.1389 28.5175 28.512C28.1442 28.8853 27.7897 29.1164 27.2917 29.3098C26.9162 29.4564 26.3513 29.6298 25.3113 29.6773C24.1868 29.7284 23.849 29.7396 21.001 29.7396C18.1528 29.7396 17.8152 29.7284 16.6907 29.6773C15.6507 29.6293 15.0863 29.4556 14.7101 29.3096C14.2123 29.1162 13.8567 28.8851 13.4834 28.5118C13.11 28.1384 12.8789 27.7838 12.6851 27.2858C12.5391 26.9102 12.3651 26.3457 12.3178 25.3057C12.2667 24.1813 12.2565 23.8435 12.2565 20.995C12.2565 18.1465 12.2667 17.8105 12.3178 16.6861C12.3654 15.6461 12.5391 15.0816 12.6851 14.7056C12.8785 14.2078 13.11 13.8523 13.4834 13.4789C13.8567 13.1056 14.2123 12.8745 14.7101 12.6807C15.0861 12.534 15.6507 12.3607 16.6907 12.3129C17.6747 12.2685 18.0561 12.2552 20.0441 12.2529V12.2556ZM26.6948 14.0267C25.9882 14.0267 25.4148 14.5994 25.4148 15.3063C25.4148 16.013 25.9882 16.5863 26.6948 16.5863C27.4015 16.5863 27.9749 16.013 27.9749 15.3063C27.9749 14.5996 27.4015 14.0263 26.6948 14.0263V14.0267ZM15.5232 21.0001C15.5232 17.9751 17.9757 15.5224 21.0008 15.5223C24.0259 15.5223 26.478 17.975 26.478 21.0001C26.478 24.0253 24.0261 26.4769 21.001 26.4769C17.9759 26.4769 15.5232 24.0253 15.5232 21.0001ZM24.5566 20.9999C24.5566 19.0361 22.9646 17.4443 21.001 17.4443C19.0372 17.4443 17.4454 19.0361 17.4454 20.9999C17.4454 22.9635 19.0372 24.5555 21.001 24.5555C22.9646 24.5555 24.5566 22.9635 24.5566 20.9999Z" fill="white"/>
</g>
<defs>
<filter id="filter0_b_136_490" x="-42" y="-42" width="126" height="126" filterUnits="userSpaceOnUse" color-interpolation-filters="sRGB">
<feFlood flood-opacity="0" result="BackgroundImageFix"/>
<feGaussianBlur in="BackgroundImageFix" stdDeviation="21"/>
<feComposite in2="SourceAlpha" operator="in" result="effect1_backgroundBlur_136_490"/>
<feBlend mode="normal" in="SourceGraphic" in2="effect1_backgroundBlur_136_490" result="shape"/>
</filter>
<linearGradient id="paint0_linear_136_490" x1="1" y1="1" x2="25.4547" y2="48.9313" gradientUnits="userSpaceOnUse">
<stop stop-color="white" stop-opacity="0.4"/>
<stop offset="1" stop-color="white" stop-opacity="0"/>
</linearGradient>
<radialGradient id="paint1_radial_136_490" cx="0" cy="0" r="1" gradientUnits="userSpaceOnUse" gradientTransform="translate(21 21) rotate(-132.581) scale(37.7163 29.2587)">
<stop stop-color="white" stop-opacity="0.2"/>
<stop offset="1" stop-color="white" stop-opacity="0.2"/>
</radialGradient>
</defs>
</svg>
