<svg width="42" height="42" viewBox="0 0 42 42" fill="none" xmlns="http://www.w3.org/2000/svg">
<g id="Mail">
<g id="Combined-Shape-path" filter="url(#filter0_b_136_523)">
<path d="M21 41C9.9543 41 1 32.0457 1 21C1 9.9543 9.9543 1 21 1C32.0457 1 41 9.9543 41 21C41 32.0457 32.0457 41 21 41Z" fill="url(#paint0_linear_136_523)" fill-opacity="0.4"/>
<path d="M0.5 21C0.5 32.3218 9.67816 41.5 21 41.5C32.3218 41.5 41.5 32.3218 41.5 21C41.5 9.67816 32.3218 0.5 21 0.5C9.67816 0.5 0.5 9.67816 0.5 21Z" stroke="url(#paint1_radial_136_523)"/>
</g>
<path id="Union" fill-rule="evenodd" clip-rule="evenodd" d="M30.8787 15.4C30.8787 15.4 22.9163 19.8775 21.2787 19.8775C19.7163 19.8775 11.6667 15.3128 11.6667 15.3128V14.6C11.6667 13.7168 12.3835 13 13.2683 13H29.2891C30.1747 13 30.8915 13.7168 30.8915 14.6L30.8787 15.4ZM11.6795 17.7998C11.6787 17.7998 19.7163 22.0773 21.2787 22.0773C22.9915 22.0773 30.8787 17.7998 30.8787 17.7998L30.8915 27.3998C30.8915 28.283 30.1747 28.9998 29.2891 28.9998H13.2683C12.3843 28.9998 11.6667 28.283 11.6667 27.3998L11.6795 17.7998Z" fill="white"/>
</g>
<defs>
<filter id="filter0_b_136_523" x="-42" y="-42" width="126" height="126" filterUnits="userSpaceOnUse" color-interpolation-filters="sRGB">
<feFlood flood-opacity="0" result="BackgroundImageFix"/>
<feGaussianBlur in="BackgroundImageFix" stdDeviation="21"/>
<feComposite in2="SourceAlpha" operator="in" result="effect1_backgroundBlur_136_523"/>
<feBlend mode="normal" in="SourceGraphic" in2="effect1_backgroundBlur_136_523" result="shape"/>
</filter>
<linearGradient id="paint0_linear_136_523" x1="1" y1="1" x2="25.4547" y2="48.9313" gradientUnits="userSpaceOnUse">
<stop stop-color="white" stop-opacity="0.4"/>
<stop offset="1" stop-color="white" stop-opacity="0"/>
</linearGradient>
<radialGradient id="paint1_radial_136_523" cx="0" cy="0" r="1" gradientUnits="userSpaceOnUse" gradientTransform="translate(21 21) rotate(-132.581) scale(37.7163 29.2587)">
<stop stop-color="white" stop-opacity="0.2"/>
<stop offset="1" stop-color="white" stop-opacity="0.2"/>
</radialGradient>
</defs>
</svg>
