<svg width="42" height="42" viewBox="0 0 42 42" fill="none" xmlns="http://www.w3.org/2000/svg">
<g id="Telegram">
<g id="Combined-Shape-path" filter="url(#filter0_b_136_500)">
<path d="M21 41C9.9543 41 1 32.0457 1 21C1 9.9543 9.9543 1 21 1C32.0457 1 41 9.9543 41 21C41 32.0457 32.0457 41 21 41Z" fill="url(#paint0_linear_136_500)" fill-opacity="0.4"/>
<path d="M0.5 21C0.5 32.3218 9.67816 41.5 21 41.5C32.3218 41.5 41.5 32.3218 41.5 21C41.5 9.67816 32.3218 0.5 21 0.5C9.67816 0.5 0.5 9.67816 0.5 21Z" stroke="url(#paint1_radial_136_500)"/>
</g>
<path id="Combined-Shape-path_2" d="M17.6736 25.0688L17.3333 30.1669C17.8333 30.1669 18.0543 29.9382 18.3333 29.6669L20.7356 27.331L25.7333 31.0234C26.6531 31.5309 27.3169 31.2681 27.546 30.1695L30.8268 14.709C31.1627 13.3623 30.3135 12.7515 29.4336 13.1509L10.1686 20.5794C8.85359 21.1069 8.86126 21.8405 9.92891 22.1674L14.8727 23.7105L26.3182 16.4897C26.8586 16.162 27.3545 16.3382 26.9474 16.6994L17.6733 25.0686L17.6736 25.0688Z" fill="#DADADA"/>
</g>
<defs>
<filter id="filter0_b_136_500" x="-42" y="-42" width="126" height="126" filterUnits="userSpaceOnUse" color-interpolation-filters="sRGB">
<feFlood flood-opacity="0" result="BackgroundImageFix"/>
<feGaussianBlur in="BackgroundImageFix" stdDeviation="21"/>
<feComposite in2="SourceAlpha" operator="in" result="effect1_backgroundBlur_136_500"/>
<feBlend mode="normal" in="SourceGraphic" in2="effect1_backgroundBlur_136_500" result="shape"/>
</filter>
<linearGradient id="paint0_linear_136_500" x1="1" y1="1" x2="25.4547" y2="48.9313" gradientUnits="userSpaceOnUse">
<stop stop-color="white" stop-opacity="0.4"/>
<stop offset="1" stop-color="white" stop-opacity="0"/>
</linearGradient>
<radialGradient id="paint1_radial_136_500" cx="0" cy="0" r="1" gradientUnits="userSpaceOnUse" gradientTransform="translate(21 21) rotate(-132.581) scale(37.7163 29.2587)">
<stop stop-color="white" stop-opacity="0.2"/>
<stop offset="1" stop-color="white" stop-opacity="0.2"/>
</radialGradient>
</defs>
</svg>
