<svg width="42" height="42" viewBox="0 0 42 42" fill="none" xmlns="http://www.w3.org/2000/svg">
<g id="Youtube">
<g id="Combined-Shape-path" filter="url(#filter0_b_136_510)">
<path d="M1 21C1 9.9543 9.9543 1 21 1C32.0457 1 41 9.9543 41 21C41 32.0457 32.0457 41 21 41C9.9543 41 1 32.0457 1 21Z" fill="url(#paint0_linear_136_510)" fill-opacity="0.4"/>
<path d="M21 0.5C9.67816 0.5 0.5 9.67816 0.5 21C0.5 32.3218 9.67816 41.5 21 41.5C32.3218 41.5 41.5 32.3218 41.5 21C41.5 9.67816 32.3218 0.5 21 0.5Z" stroke="url(#paint1_radial_136_510)"/>
</g>
<path id="Exclude" fill-rule="evenodd" clip-rule="evenodd" d="M29.3346 14.1243C30.2526 14.3762 30.9755 15.1183 31.2208 16.0609C31.6666 17.769 31.6666 21.3332 31.6666 21.3332C31.6666 21.3332 31.6666 24.8972 31.2208 26.6055C30.9755 27.548 30.2526 28.2902 29.3346 28.5422C27.6711 28.9998 21 28.9998 21 28.9998C21 28.9998 14.3288 28.9998 12.6652 28.5422C11.7473 28.2902 11.0243 27.548 10.779 26.6055C10.3333 24.8972 10.3333 21.3332 10.3333 21.3332C10.3333 21.3332 10.3333 17.769 10.779 16.0609C11.0243 15.1183 11.7473 14.3762 12.6652 14.1243C14.3288 13.6665 21 13.6665 21 13.6665C21 13.6665 27.6711 13.6665 29.3346 14.1243ZM19 18.3335V25.0002L24.3333 21.667L19 18.3335Z" fill="white"/>
</g>
<defs>
<filter id="filter0_b_136_510" x="-42" y="-42" width="126" height="126" filterUnits="userSpaceOnUse" color-interpolation-filters="sRGB">
<feFlood flood-opacity="0" result="BackgroundImageFix"/>
<feGaussianBlur in="BackgroundImageFix" stdDeviation="21"/>
<feComposite in2="SourceAlpha" operator="in" result="effect1_backgroundBlur_136_510"/>
<feBlend mode="normal" in="SourceGraphic" in2="effect1_backgroundBlur_136_510" result="shape"/>
</filter>
<linearGradient id="paint0_linear_136_510" x1="1" y1="1" x2="25.4547" y2="48.9313" gradientUnits="userSpaceOnUse">
<stop stop-color="white" stop-opacity="0.4"/>
<stop offset="1" stop-color="white" stop-opacity="0"/>
</linearGradient>
<radialGradient id="paint1_radial_136_510" cx="0" cy="0" r="1" gradientUnits="userSpaceOnUse" gradientTransform="translate(21 21) rotate(-132.581) scale(37.7163 29.2587)">
<stop stop-color="white" stop-opacity="0.2"/>
<stop offset="1" stop-color="white" stop-opacity="0.2"/>
</radialGradient>
</defs>
</svg>
