<svg width="65" height="80" viewBox="0 0 65 80" fill="none" xmlns="http://www.w3.org/2000/svg">
<g filter="url(#filter0_i_455_3024)">
<rect x="2" width="60" height="60" rx="15" fill="#F9898E" fill-opacity="0.05"/>
</g>
<g filter="url(#filter1_f_455_3024)">
<path fill-rule="evenodd" clip-rule="evenodd" d="M44.4434 60H20.5723C20.8137 53.6163 26.065 48.5151 32.5078 48.5151C38.9506 48.5151 44.202 53.6163 44.4434 60Z" fill="#F9898E" fill-opacity="0.5"/>
</g>
<path opacity="0.5" d="M48.6666 23.0166V35.2666C48.1833 35.0333 47.6499 34.8666 47.0499 34.7666L46.5333 34.6833L46.0999 33.7833C45.1832 31.9166 43.6833 30.8333 41.9999 30.8333C40.3166 30.8333 38.8166 31.9166 37.8999 33.7833L37.4499 34.6833L36.9499 34.7666C34.9666 35.0999 33.5332 36.1999 33.0166 37.7666C32.5166 39.3499 33.0333 41.0833 34.4499 42.5166L34.9666 43.0333L34.9166 43.2333C34.5833 44.7166 34.7166 45.8499 35.0333 46.6666H25.0166C18.9499 46.6666 15.3333 43.0499 15.3333 36.9833V23.0166C15.3333 16.9499 18.9499 13.3333 25.0166 13.3333H38.9833C45.0499 13.3333 48.6666 16.9499 48.6666 23.0166Z" fill="#F9898E"/>
<path d="M43.8667 34.8999L44.4 35.9832C44.6667 36.5166 45.35 37.0166 45.9167 37.1166L46.6333 37.2332C48.8167 37.5999 49.3167 39.1999 47.7667 40.7666L47.1 41.4332C46.65 41.8832 46.4167 42.7499 46.55 43.3832L46.6333 43.7832C47.2333 46.4166 45.8333 47.4332 43.55 46.0499L43.0667 45.7499C42.4834 45.3999 41.5166 45.3999 40.9333 45.7499L40.45 46.0499C38.15 47.4332 36.7667 46.4166 37.3667 43.7832L37.45 43.3832C37.5833 42.7666 37.35 41.8832 36.9 41.4332L36.2334 40.7666C34.6834 39.1832 35.1833 37.5999 37.3667 37.2332L38.0833 37.1166C38.6667 37.0166 39.3333 36.5166 39.6 35.9832L40.1333 34.8999C41.1667 32.8166 42.8333 32.8166 43.8667 34.8999Z" fill="#F9898E"/>
<path fill-rule="evenodd" clip-rule="evenodd" d="M38.8824 23.1955C39.428 23.6184 39.5275 24.4036 39.1045 24.9492L35.2471 29.9254C34.2556 31.1793 32.4276 31.408 31.1523 30.4225L31.1436 30.4158L28.0993 28.0202C27.9112 27.8774 27.6489 27.9129 27.506 28.0972C27.5059 28.0974 27.5062 28.097 27.506 28.0972L23.5402 33.2462C23.1189 33.7931 22.334 33.895 21.7871 33.4737C21.2402 33.0525 21.1383 32.2676 21.5596 31.7207L25.5274 26.5691C26.5173 25.2881 28.3526 25.0566 29.6309 26.0443L29.6396 26.051L32.6838 28.4466C32.8739 28.5909 33.1417 28.5537 33.2835 28.3779L37.1286 23.4176C37.5516 22.872 38.3368 22.7725 38.8824 23.1955Z" fill="#F9898E"/>
<defs>
<filter id="filter0_i_455_3024" x="2" y="0" width="60" height="65" filterUnits="userSpaceOnUse" color-interpolation-filters="sRGB">
<feFlood flood-opacity="0" result="BackgroundImageFix"/>
<feBlend mode="normal" in="SourceGraphic" in2="BackgroundImageFix" result="shape"/>
<feColorMatrix in="SourceAlpha" type="matrix" values="0 0 0 0 0 0 0 0 0 0 0 0 0 0 0 0 0 0 127 0" result="hardAlpha"/>
<feOffset dy="5"/>
<feGaussianBlur stdDeviation="7.5"/>
<feComposite in2="hardAlpha" operator="arithmetic" k2="-1" k3="1"/>
<feColorMatrix type="matrix" values="0 0 0 0 1 0 0 0 0 1 0 0 0 0 1 0 0 0 0.15 0"/>
<feBlend mode="normal" in2="shape" result="effect1_innerShadow_455_3024"/>
</filter>
<filter id="filter1_f_455_3024" x="0.572266" y="28.5151" width="63.8711" height="51.4849" filterUnits="userSpaceOnUse" color-interpolation-filters="sRGB">
<feFlood flood-opacity="0" result="BackgroundImageFix"/>
<feBlend mode="normal" in="SourceGraphic" in2="BackgroundImageFix" result="shape"/>
<feGaussianBlur stdDeviation="10" result="effect1_foregroundBlur_455_3024"/>
</filter>
</defs>
</svg>
