<svg width="65" height="80" viewBox="0 0 65 80" fill="none" xmlns="http://www.w3.org/2000/svg">
<g filter="url(#filter0_i_455_3034)">
<rect x="2" width="60" height="60" rx="15" fill="#F9898E" fill-opacity="0.05"/>
</g>
<g filter="url(#filter1_f_455_3034)">
<path fill-rule="evenodd" clip-rule="evenodd" d="M44.4434 60H20.5723C20.8137 53.6163 26.065 48.5151 32.5078 48.5151C38.9506 48.5151 44.202 53.6163 44.4434 60Z" fill="#F9898E" fill-opacity="0.5"/>
</g>
<path opacity="0.5" d="M29.9168 14.0832C31.0668 13.0999 32.9501 13.0999 34.1168 14.0832L36.7501 16.3498C37.2501 16.7832 38.1834 17.1332 38.8501 17.1332H41.6835C43.4501 17.1332 44.9001 18.5832 44.9001 20.3499V23.1831C44.9001 23.8331 45.2501 24.7832 45.6834 25.2832L47.9501 27.9165C48.9335 29.0665 48.9335 30.9499 47.9501 32.1166L45.6834 34.7498C45.2501 35.2498 44.9001 36.1832 44.9001 36.8498V39.6832C44.9001 41.4498 43.4501 42.8998 41.6835 42.8998H38.8501C38.2001 42.8998 37.2501 43.2499 36.7501 43.6832L34.1168 45.9499C32.9668 46.9332 31.0835 46.9332 29.9168 45.9499L27.2835 43.6832C26.7835 43.2499 25.8501 42.8998 25.1835 42.8998H22.3001C20.5334 42.8998 19.0835 41.4498 19.0835 39.6832V36.8331C19.0835 36.1831 18.7335 35.2498 18.3168 34.7498L16.0668 32.0999C15.1001 30.9499 15.1001 29.0832 16.0668 27.9332L18.3168 25.2832C18.7335 24.7832 19.0835 23.8498 19.0835 23.1998V20.3499C19.0835 18.5832 20.5334 17.1332 22.3001 17.1332H25.1835C25.8335 17.1332 26.7835 16.7832 27.2835 16.3498L29.9168 14.0832Z" fill="#F9898E"/>
<path d="M39.6333 28.4502C39.3167 28.0002 38.7834 27.7502 38.15 27.7502H34.9C34.6833 27.7502 34.4834 27.6669 34.35 27.5002C34.2167 27.3335 34.15 27.1169 34.1834 26.8835L34.5833 24.2836C34.75 23.5169 34.2334 22.6335 33.4667 22.3835C32.75 22.1169 31.9 22.4835 31.5667 22.9835L28.3333 27.7835V27.1835C28.3333 26.0169 27.8334 25.5336 26.6 25.5336H25.7833C24.55 25.5336 24.05 26.0169 24.05 27.1835V35.1503C24.05 36.3169 24.55 36.8002 25.7833 36.8002H26.6C27.7667 36.8002 28.2667 36.3502 28.3167 35.2835L30.7667 37.1669C31.1 37.5002 31.85 37.6835 32.3834 37.6835H35.4667C36.5333 37.6835 37.6 36.8835 37.8334 35.9002L39.7834 29.9668C40.0001 29.4335 39.95 28.8836 39.6333 28.4502Z" fill="#F9898E"/>
<defs>
<filter id="filter0_i_455_3034" x="2" y="0" width="60" height="65" filterUnits="userSpaceOnUse" color-interpolation-filters="sRGB">
<feFlood flood-opacity="0" result="BackgroundImageFix"/>
<feBlend mode="normal" in="SourceGraphic" in2="BackgroundImageFix" result="shape"/>
<feColorMatrix in="SourceAlpha" type="matrix" values="0 0 0 0 0 0 0 0 0 0 0 0 0 0 0 0 0 0 127 0" result="hardAlpha"/>
<feOffset dy="5"/>
<feGaussianBlur stdDeviation="7.5"/>
<feComposite in2="hardAlpha" operator="arithmetic" k2="-1" k3="1"/>
<feColorMatrix type="matrix" values="0 0 0 0 1 0 0 0 0 1 0 0 0 0 1 0 0 0 0.15 0"/>
<feBlend mode="normal" in2="shape" result="effect1_innerShadow_455_3034"/>
</filter>
<filter id="filter1_f_455_3034" x="0.572266" y="28.5151" width="63.8711" height="51.4849" filterUnits="userSpaceOnUse" color-interpolation-filters="sRGB">
<feFlood flood-opacity="0" result="BackgroundImageFix"/>
<feBlend mode="normal" in="SourceGraphic" in2="BackgroundImageFix" result="shape"/>
<feGaussianBlur stdDeviation="10" result="effect1_foregroundBlur_455_3034"/>
</filter>
</defs>
</svg>
