<svg xmlns="http://www.w3.org/2000/svg" width="1405" height="270" viewBox="0 0 1405 270" fill="none">
    <path opacity="0.1" fill-rule="evenodd" clip-rule="evenodd"
        d="M774.34 270C754.202 270 735.431 266.768 718.028 260.304C700.873 253.591 685.956 244.144 673.276 231.961C660.597 219.779 650.652 205.483 643.442 189.075C636.481 172.666 633 154.641 633 135C633 115.359 636.481 97.3343 643.442 80.9254C650.652 64.5166 660.597 50.221 673.276 38.0387C686.204 25.8563 701.246 16.5331 718.401 10.069C735.555 3.35634 754.326 0 774.713 0C797.337 0 817.724 3.9779 835.873 11.9337C854.271 19.6409 869.685 31.0773 882.116 46.2431L843.332 82.0442C834.381 71.8508 824.436 64.2679 813.497 59.2956C802.558 54.0746 790.624 51.4641 777.696 51.4641C765.514 51.4641 754.326 53.453 744.133 57.4309C733.939 61.4088 725.113 67.1271 717.655 74.5856C710.196 82.0442 704.354 90.8702 700.127 101.064C696.149 111.257 694.16 122.569 694.16 135C694.16 147.431 696.149 158.743 700.127 168.936C704.354 179.13 710.196 187.956 717.655 195.414C725.113 202.873 733.939 208.591 744.133 212.569C754.326 216.547 765.514 218.536 777.696 218.536C790.624 218.536 802.558 216.05 813.497 211.077C824.436 205.856 834.381 198.025 843.332 187.583L882.116 223.384C869.685 238.55 854.271 250.111 835.873 258.066C817.724 266.022 797.213 270 774.34 270ZM982.491 156.629V217.043H1124.58V265.524H922.449V4.47412H1119.73V52.9548H982.491V109.64H1103.69V156.629H982.491ZM1236.67 132.599L1140.26 265.524H1209.63L1271.63 174.804L1334.56 265.524H1404.3L1306.91 130.536L1397.96 4.47412H1332.32L1273.58 88.9877L1213.73 4.47412H1145.11L1236.67 132.599ZM442.401 199.627V265.524H382.359V4.47412H442.401V126.294L558.008 4.47412H625.135L517.059 120.781L631.475 265.524H560.992L477.382 163.111L442.401 199.627ZM259.992 265.524V4.47412H320.406V265.524H259.992ZM83.5359 53.7009V265.524H143.95V53.7009H227.486V4.47435H0V53.7009H83.5359Z"
        fill="url(#paint0_linear_455_2290)" />
    <defs>
        <linearGradient id="paint0_linear_455_2290" x1="0" y1="0" x2="1314.48" y2="386.075"
            gradientUnits="userSpaceOnUse">
            <stop stop-color="#B8E69F" stop-opacity="0" />
            <stop offset="0.261868" stop-color="#CEFFB3" />
            <stop offset="0.797393" stop-color="#FFA6B8" />
            <stop offset="1" stop-color="#FFE6E6" stop-opacity="0" />
        </linearGradient>
    </defs>
</svg>