<svg width="26" height="25" viewBox="0 0 26 25" fill="none" xmlns="http://www.w3.org/2000/svg">
<g id="cODcWu.tif">
<g id="Group">
<path id="Vector" d="M12.5854 0C12.6124 0.0288422 12.6384 0.0586859 12.6663 0.0865267C15.1682 2.58889 17.6703 5.09105 20.1723 7.59322C20.2362 7.65711 20.2355 7.72177 20.17 7.7872C19.288 8.66919 18.4061 9.55129 17.524 10.4331C17.4983 10.4587 17.4767 10.4895 17.4415 10.5058C17.4045 10.4878 17.381 10.4544 17.3532 10.4267C15.7918 8.86578 14.2307 7.3045 12.6695 5.74331C12.6103 5.68409 12.5507 5.68452 12.4906 5.74461C10.9295 7.3058 9.36831 8.86708 7.80722 10.4283C7.75027 10.4852 7.69309 10.485 7.63567 10.4277C6.75138 9.54327 5.86708 8.65888 4.98269 7.77458C4.96857 7.76046 4.95585 7.74434 4.94002 7.73252C4.89586 7.69937 4.90127 7.66943 4.94203 7.63838C4.95515 7.62837 4.96586 7.61515 4.97768 7.60333C7.48425 5.09606 9.99092 2.58909 12.4971 0.0815194C12.5219 0.056683 12.5565 0.0385565 12.5655 0C12.5722 0 12.5788 0 12.5855 0H12.5854Z" fill="white"/>
<path id="Vector_2" d="M0.0566578 12.4897C0.0743838 12.5006 0.0880037 12.4924 0.100522 12.4801C0.121953 12.4591 0.143285 12.438 0.164516 12.4167C1.0439 11.5373 1.92329 10.6579 2.80268 9.77838C2.8145 9.76656 2.82631 9.75484 2.83803 9.74303C2.90393 9.67683 2.89431 9.67743 2.96001 9.74303C3.86053 10.6437 4.76105 11.5446 5.66147 12.4454C5.73267 12.5166 5.73357 12.5024 5.66187 12.5741C4.76355 13.4724 3.86524 14.3706 2.96662 15.2686C2.89061 15.3446 2.90673 15.3456 2.83062 15.2696C2.12318 14.5624 1.41605 13.8549 0.708813 13.1475C0.517833 12.9565 0.327454 12.765 0.135373 12.5751C0.114242 12.5542 0.100722 12.5129 0.0564575 12.5296V12.4895L0.0566578 12.4897Z" fill="white"/>
<path id="Vector_3" d="M17.4304 14.5078C17.4751 14.529 17.4948 14.5569 17.5181 14.5802C18.408 15.4686 19.2977 16.3574 20.1874 17.246C20.1969 17.2554 20.2066 17.2646 20.2158 17.2743C20.2502 17.31 20.2498 17.3462 20.2148 17.3827C20.1987 17.3995 20.1819 17.416 20.1655 17.4325C17.6703 19.9278 15.175 22.4233 12.6798 24.9188C12.5716 25.0271 12.5863 25.026 12.4811 24.9208C9.9811 22.4205 7.48104 19.9202 4.98097 17.4201C4.92055 17.3596 4.91968 17.3001 4.97837 17.2415C5.86637 16.3558 6.75417 15.47 7.64257 14.5847C7.73431 14.4933 7.70917 14.4936 7.7997 14.584C9.36369 16.1475 10.9273 17.7114 12.4911 19.2753C12.5508 19.335 12.6104 19.335 12.6701 19.2753C14.2291 17.7162 15.7881 16.1571 17.347 14.5978C17.3752 14.5696 17.4014 14.5394 17.4304 14.5079V14.5078Z" fill="white"/>
<path id="Vector_4" d="M12.5805 9.65063C12.6136 9.66395 12.6327 9.6926 12.6559 9.71573C13.5618 10.6207 14.4675 11.526 15.3731 12.4312C15.3896 12.4477 15.4055 12.4649 15.4227 12.4806C15.4448 12.5006 15.4447 12.5189 15.4227 12.539C15.4055 12.5547 15.3896 12.5718 15.3731 12.5883C14.4675 13.4936 13.5618 14.3989 12.6559 15.3038C12.6327 15.3269 12.6136 15.3557 12.5808 15.3688C12.5478 15.3563 12.5293 15.3273 12.5063 15.3044C11.6004 14.3994 10.6946 13.4942 9.7892 12.5886C9.69917 12.4986 9.69957 12.5208 9.7895 12.4309C10.6924 11.5277 11.5957 10.6248 12.4993 9.72214C12.5246 9.6968 12.5453 9.66546 12.5805 9.65063Z" fill="white"/>
<path id="Vector_5" d="M22.2835 9.68311C22.2987 9.70404 22.3151 9.73438 22.3385 9.75782C23.2268 10.6475 24.1158 11.5365 25.0047 12.4256C25.0118 12.4327 25.0189 12.4396 25.026 12.4469C25.0869 12.5094 25.0876 12.5101 25.0263 12.5716C24.1186 13.4797 23.2107 14.3875 22.3028 15.2953C22.2911 15.3069 22.2782 15.3175 22.2664 15.3281C22.2314 15.3147 22.2125 15.286 22.1895 15.263C21.298 14.3718 20.4067 13.4804 19.5157 12.5887C19.4255 12.4984 19.4259 12.5202 19.5153 12.4307C20.4064 11.539 21.2978 10.6477 22.1894 9.75661C22.2125 9.73348 22.2318 9.70534 22.2836 9.68321L22.2835 9.68311Z" fill="white"/>
</g>
</g>
</svg>
