<svg width="23" height="22" viewBox="0 0 23 22" fill="none" xmlns="http://www.w3.org/2000/svg">
<g id="vuesax/bulk/copy">
<g id="copy">
<path id="Vector" d="M15.1667 11.8249V15.6749C15.1667 18.8833 13.8834 20.1666 10.675 20.1666H6.82504C3.61671 20.1666 2.33337 18.8833 2.33337 15.6749V11.8249C2.33337 8.61658 3.61671 7.33325 6.82504 7.33325H10.675C13.8834 7.33325 15.1667 8.61658 15.1667 11.8249Z" fill="#F9898E"/>
<path id="Vector_2" opacity="0.4" d="M16.175 1.83325H12.325C9.16253 1.83325 7.8792 3.08909 7.84253 6.18742H10.675C14.525 6.18742 16.3125 7.97492 16.3125 11.8249V14.6574C19.4109 14.6208 20.6667 13.3374 20.6667 10.1749V6.32492C20.6667 3.11659 19.3834 1.83325 16.175 1.83325Z" fill="#F9898E"/>
</g>
</g>
</svg>
