<svg width="24" height="25" viewBox="0 0 24 25" fill="none" xmlns="http://www.w3.org/2000/svg">
<g id="PDF File">
<path id="Vector" fill-rule="evenodd" clip-rule="evenodd" d="M10 1.50049C9.73481 1.50054 9.48049 1.60593 9.293 1.79347L3.293 7.79317C3.10545 7.98066 3.00006 8.23496 3 8.50014V20.4995C3 21.2951 3.31607 22.0582 3.87868 22.6208C4.44129 23.1833 5.20435 23.4994 6 23.4994H7C7.26522 23.4994 7.51957 23.394 7.70711 23.2065C7.89464 23.019 8 22.7646 8 22.4994C8 22.2342 7.89464 21.9799 7.70711 21.7924C7.51957 21.6048 7.26522 21.4995 7 21.4995H6C5.73478 21.4995 5.48043 21.3941 5.29289 21.2066C5.10536 21.0191 5 20.7647 5 20.4995V9.50009H10C10.2652 9.50009 10.5196 9.39474 10.7071 9.20721C10.8946 9.01968 11 8.76534 11 8.50014V3.50039H18C18.2652 3.50039 18.5196 3.60574 18.7071 3.79327C18.8946 3.98079 19 4.23514 19 4.50034V11.5C19 11.7652 19.1054 12.0195 19.2929 12.2071C19.4804 12.3946 19.7348 12.4999 20 12.4999C20.2652 12.4999 20.5196 12.3946 20.7071 12.2071C20.8946 12.0195 21 11.7652 21 11.5V4.50034C21 3.70473 20.6839 2.94171 20.1213 2.37912C19.5587 1.81654 18.7956 1.50049 18 1.50049H10ZM9 7.50019H6.414L9 4.91432V7.50019ZM10.308 24.0624C10.466 24.2574 10.695 24.4163 10.985 24.4753C11.255 24.5313 11.492 24.4803 11.656 24.4203C11.958 24.3103 12.196 24.1034 12.35 23.9504C12.594 23.7104 12.85 23.3844 13.103 23.0164C14.213 22.6334 15.771 22.2815 17.287 22.0595C18.13 21.9365 18.917 21.8595 19.579 21.8335C19.841 22.1435 20.08 22.4084 20.279 22.6094C20.403 22.7354 20.541 22.8664 20.677 22.9664C20.737 23.0114 20.852 23.0914 20.999 23.1484C21.076 23.1784 21.579 23.3704 22.042 22.9964C22.316 22.7764 22.568 22.5294 22.744 22.2525C22.921 21.9725 23.088 21.5465 22.949 21.0625C22.813 20.5875 22.459 20.3225 22.198 20.1846C21.9333 20.0534 21.65 19.9637 21.358 19.9186C21.0818 19.8724 20.8029 19.8441 20.523 19.8336C19.8186 18.95 19.1416 18.045 18.493 17.1197C17.9269 16.3207 17.3925 15.4998 16.891 14.6588C16.936 14.4658 16.973 14.2818 17.003 14.1059C17.053 13.8059 17.083 13.5039 17.076 13.2209C17.0759 12.9094 17.009 12.6015 16.88 12.3179C16.7927 12.1316 16.6659 11.9665 16.5084 11.8341C16.3509 11.7017 16.1665 11.6051 15.968 11.551C15.566 11.443 15.183 11.524 14.889 11.633C14.436 11.8 14.187 12.173 14.101 12.5359C14.0451 12.8059 14.0495 13.0849 14.114 13.3529C14.208 13.7909 14.427 14.2958 14.68 14.7888C14.702 14.8328 14.725 14.8778 14.749 14.9218C14.51 15.7068 14.158 16.6317 13.739 17.5897C13.126 18.9926 12.405 20.3835 11.785 21.3775C11.362 21.5545 10.971 21.7575 10.675 21.9915C10.473 22.1505 10.202 22.4084 10.072 22.7864C9.913 23.2504 10.026 23.7144 10.308 24.0624ZM11.876 23.5944L11.882 23.5874C11.8802 23.5899 11.8782 23.5922 11.876 23.5944ZM16.997 20.0806C16.183 20.2006 15.345 20.3565 14.55 20.5385C14.904 19.8516 15.253 19.1196 15.572 18.3906C15.752 17.9777 15.927 17.5577 16.089 17.1427C16.336 17.5167 16.594 17.8957 16.856 18.2677C17.2528 18.8334 17.6596 19.3921 18.076 19.9436C17.719 19.9816 17.356 20.0286 16.997 20.0806ZM16.061 12.8839V12.8819V12.8839Z" fill="white"/>
</g>
</svg>
