<svg width="28" height="25" viewBox="0 0 28 25" fill="none" xmlns="http://www.w3.org/2000/svg">
<g id="engclE.tif">
<path id="Vector" d="M27.0719 12.0691C26.8224 12.6896 26.3153 13.0494 25.7549 13.344C24.7192 13.8892 23.6058 14.2127 22.47 14.472C20.9211 14.8254 19.3505 15.0325 17.7707 15.1771C17.2822 15.2219 16.7917 15.246 16.291 15.2802V25H10.6413V15.2738C10.5751 15.2657 10.5272 15.2572 10.479 15.2545C8.4644 15.1384 6.46675 14.8923 4.49965 14.4354C3.4107 14.1825 2.34076 13.8648 1.35059 13.3274C0.986361 13.1298 0.645216 12.9007 0.374336 12.5806C-0.0428452 12.0877 -0.0520103 11.5742 0.360419 11.0786C0.757912 10.601 1.29254 10.3172 1.84652 10.0701C2.97009 9.56938 4.15375 9.26353 5.35506 9.0232C6.67856 8.75844 8.01531 8.5843 9.36054 8.47567C9.77704 8.44207 10.1932 8.40812 10.6206 8.3735V5.66063H2.93751V5.43931C2.93751 3.6881 2.93751 1.93689 2.93717 0.185339C2.93717 0.123559 2.93174 0.0617795 2.92902 0C9.94813 0 16.9672 0 23.9863 0V5.66063H16.2992V8.36128C16.897 8.41084 17.4822 8.45972 18.067 8.50792C19.5199 8.62741 20.9588 8.83922 22.3814 9.15763C23.4782 9.40339 24.56 9.69939 25.5695 10.2086C26.2002 10.5266 26.7898 10.8959 27.0723 11.5945V12.0691H27.0719ZM16.2924 12.2941C14.3932 12.3939 12.5208 12.382 10.6277 12.2805V9.01404C10.551 9.01404 10.495 9.01064 10.4393 9.01438C9.74072 9.06122 9.04044 9.09245 8.34389 9.16068C6.86085 9.30562 5.38255 9.48689 3.93582 9.86198C3.28001 10.032 2.62657 10.2177 2.05189 10.5921C1.44326 10.9889 1.44495 11.42 2.04646 11.8281C2.55359 12.1719 3.13099 12.3518 3.71416 12.5097C5.00814 12.8596 6.32757 13.0745 7.66059 13.1926C8.88667 13.3013 10.1145 13.4051 11.3439 13.4533C13.9546 13.5559 16.5629 13.4934 19.1648 13.23C20.6034 13.0844 22.0318 12.8827 23.431 12.509C23.9599 12.3674 24.4799 12.1977 24.9561 11.9187C25.058 11.859 25.1561 11.79 25.2464 11.7143C25.6483 11.3773 25.653 11.0226 25.2284 10.7069C24.9914 10.5307 24.7229 10.383 24.4483 10.2741C22.9985 9.69871 21.4693 9.46992 19.933 9.28933C19.1315 9.1953 18.326 9.13081 17.5219 9.06292C17.1179 9.02898 16.7123 9.0171 16.2927 8.99469V12.2941H16.2924Z" fill="white"/>
</g>
</svg>
