<svg width="23" height="22" viewBox="0 0 23 22" fill="none" xmlns="http://www.w3.org/2000/svg">
<g id="vuesax/bold/verify">
<g id="verify">
<path id="Vector" d="M20.3275 9.85478L19.0809 8.40645C18.8425 8.13144 18.65 7.61811 18.65 7.25145V5.69311C18.65 4.72145 17.8525 3.92394 16.8808 3.92394H15.3225C14.965 3.92394 14.4425 3.73145 14.1675 3.49311L12.7192 2.24645C12.0867 1.70561 11.0508 1.70561 10.4092 2.24645L8.97002 3.50228C8.69502 3.73145 8.17252 3.92394 7.81502 3.92394H6.22918C5.25752 3.92394 4.46002 4.72145 4.46002 5.69311V7.26061C4.46002 7.61811 4.26752 8.13144 4.03835 8.40645L2.80085 9.86395C2.26918 10.4964 2.26918 11.5231 2.80085 12.1556L4.03835 13.6131C4.26752 13.8881 4.46002 14.4014 4.46002 14.7589V16.3264C4.46002 17.2981 5.25752 18.0956 6.22918 18.0956H7.81502C8.17252 18.0956 8.69502 18.2881 8.97002 18.5264L10.4183 19.7731C11.0508 20.3139 12.0867 20.3139 12.7283 19.7731L14.1767 18.5264C14.4517 18.2881 14.965 18.0956 15.3317 18.0956H16.89C17.8617 18.0956 18.6592 17.2981 18.6592 16.3264V14.7681C18.6592 14.4106 18.8517 13.8881 19.09 13.6131L20.3367 12.1648C20.8684 11.5323 20.8684 10.4873 20.3275 9.85478ZM15.3775 9.27728L10.95 13.7048C10.8217 13.8331 10.6475 13.9064 10.4642 13.9064C10.2808 13.9064 10.1067 13.8331 9.97835 13.7048L7.76002 11.4864C7.49418 11.2206 7.49418 10.7806 7.76002 10.5148C8.02585 10.2489 8.46585 10.2489 8.73168 10.5148L10.4642 12.2473L14.4059 8.30561C14.6717 8.03978 15.1117 8.03978 15.3775 8.30561C15.6433 8.57145 15.6433 9.01144 15.3775 9.27728Z" fill="#A8FF78"/>
</g>
</g>
</svg>
