<svg width="24" height="25" viewBox="0 0 24 25" fill="none" xmlns="http://www.w3.org/2000/svg">
<path d="M21.45 14.1399V15.1399C21.45 15.4099 21.24 15.6299 20.96 15.6399H19.5C18.97 15.6399 18.49 15.2499 18.45 14.7299C18.42 14.4199 18.54 14.1299 18.74 13.9299C18.92 13.7399 19.17 13.6399 19.44 13.6399H20.95C21.24 13.6499 21.45 13.8699 21.45 14.1399Z" fill="#000014"/>
<path d="M17.99 13.1899C17.49 13.6799 17.25 14.4099 17.45 15.1699C17.71 16.0999 18.62 16.6899 19.58 16.6899H20.45C21 16.6899 21.45 17.1399 21.45 17.6899V17.8799C21.45 19.9499 19.76 21.6399 17.69 21.6399H6.21001C4.14001 21.6399 2.45001 19.9499 2.45001 17.8799V11.1499C2.45001 9.91989 3.04001 8.82989 3.95001 8.14989C4.58001 7.66989 5.36001 7.38989 6.21001 7.38989H17.69C19.76 7.38989 21.45 9.07989 21.45 11.1499V11.5899C21.45 12.1399 21 12.5899 20.45 12.5899H19.43C18.87 12.5899 18.36 12.8099 17.99 13.1899Z" fill="#000014"/>
<path d="M16.2 5.32C16.47 5.59 16.24 6.01 15.86 6.01L8.18 6C7.74 6 7.51 5.46 7.83 5.15L9.45 3.52C10.82 2.16 13.04 2.16 14.41 3.52L16.16 5.29C16.17 5.3 16.19 5.31 16.2 5.32Z" fill="#000014"/>
</svg>
