<svg width="65" height="80" viewBox="0 0 65 80" fill="none" xmlns="http://www.w3.org/2000/svg">
<g filter="url(#filter0_i_67_619)">
<rect x="2" width="60" height="60" rx="15" fill="#A8FF78" fill-opacity="0.05"/>
</g>
<g filter="url(#filter1_f_67_619)">
<path fill-rule="evenodd" clip-rule="evenodd" d="M44.4434 60H20.5723C20.8137 53.6163 26.065 48.5152 32.5078 48.5152C38.9506 48.5152 44.202 53.6163 44.4434 60Z" fill="#A8FF78" fill-opacity="0.5"/>
</g>
<path d="M39.9166 15.9333V13.3333C39.9166 12.65 39.35 12.0833 38.6666 12.0833C37.9833 12.0833 37.4166 12.65 37.4166 13.3333V15.8333H26.5833V13.3333C26.5833 12.65 26.0166 12.0833 25.3333 12.0833C24.65 12.0833 24.0833 12.65 24.0833 13.3333V15.9333C19.5833 16.35 17.4 19.0333 17.0666 23.0167C17.0333 23.5 17.4333 23.9 17.9 23.9H46.1C46.5833 23.9 46.9833 23.4833 46.9333 23.0167C46.6 19.0333 44.4166 16.35 39.9166 15.9333Z" fill="#A8FF78"/>
<path opacity="0.4" d="M47 28.0667V30.9666C47 31.9833 46.1 32.7667 45.1 32.6C44.6333 32.5333 44.15 32.4833 43.6667 32.4833C38.6167 32.4833 34.5 36.6 34.5 41.65C34.5 42.4166 34.8 43.4834 35.1167 44.45C35.4833 45.5334 34.6833 46.65 33.5333 46.65H25.3333C19.5 46.65 17 43.3166 17 38.3166V28.05C17 27.1333 17.75 26.3833 18.6667 26.3833H45.3333C46.25 26.4 47 27.15 47 28.0667Z" fill="#A8FF78"/>
<path d="M43.6667 35C39.9833 35 37 37.9833 37 41.6667C37 42.9167 37.35 44.1 37.9667 45.1C39.1167 47.0333 41.2333 48.3333 43.6667 48.3333C46.1 48.3333 48.2167 47.0333 49.3667 45.1C49.9833 44.1 50.3333 42.9167 50.3333 41.6667C50.3333 37.9833 47.35 35 43.6667 35ZM47.1167 40.95L43.5667 44.2333C43.3333 44.45 43.0167 44.5666 42.7167 44.5666C42.4 44.5666 42.0833 44.45 41.8333 44.2L40.1833 42.55C39.7 42.0667 39.7 41.2667 40.1833 40.7833C40.6667 40.3 41.4667 40.3 41.95 40.7833L42.75 41.5834L45.4167 39.1167C45.9167 38.65 46.7167 38.6833 47.1833 39.1833C47.65 39.6833 47.6167 40.4667 47.1167 40.95Z" fill="#A8FF78"/>
<path d="M26.1667 35C25.7333 35 25.3 34.8167 24.9833 34.5167C24.6833 34.2 24.5 33.7667 24.5 33.3333C24.5 32.9 24.6833 32.4667 24.9833 32.15C25.3667 31.7667 25.95 31.5833 26.5 31.7C26.6 31.7167 26.7 31.75 26.8 31.8C26.9 31.8333 27 31.8834 27.1 31.95C27.1833 32.0167 27.2667 32.0834 27.35 32.15C27.65 32.4667 27.8333 32.9 27.8333 33.3333C27.8333 33.7667 27.65 34.2 27.35 34.5167C27.2667 34.5833 27.1833 34.65 27.1 34.7167C27 34.7833 26.9 34.8334 26.8 34.8667C26.7 34.9167 26.6 34.95 26.5 34.9667C26.3833 34.9834 26.2667 35 26.1667 35Z" fill="#A8FF78"/>
<path d="M32 35C31.5667 35 31.1334 34.8167 30.8167 34.5167C30.5167 34.2 30.3334 33.7667 30.3334 33.3333C30.3334 32.9 30.5167 32.4667 30.8167 32.15C31.45 31.5334 32.5667 31.5334 33.1834 32.15C33.4834 32.4667 33.6667 32.9 33.6667 33.3333C33.6667 33.7667 33.4834 34.2 33.1834 34.5167C32.8667 34.8167 32.4334 35 32 35Z" fill="#A8FF78"/>
<path d="M26.1667 40.8333C25.7333 40.8333 25.3 40.65 24.9833 40.35C24.6833 40.0333 24.5 39.6 24.5 39.1667C24.5 38.7333 24.6833 38.3 24.9833 37.9833C25.15 37.8333 25.3167 37.7166 25.5333 37.6333C26.15 37.3666 26.8833 37.5167 27.35 37.9833C27.65 38.3 27.8333 38.7333 27.8333 39.1667C27.8333 39.6 27.65 40.0333 27.35 40.35C27.0333 40.65 26.6 40.8333 26.1667 40.8333Z" fill="#A8FF78"/>
<defs>
<filter id="filter0_i_67_619" x="2" y="0" width="60" height="65" filterUnits="userSpaceOnUse" color-interpolation-filters="sRGB">
<feFlood flood-opacity="0" result="BackgroundImageFix"/>
<feBlend mode="normal" in="SourceGraphic" in2="BackgroundImageFix" result="shape"/>
<feColorMatrix in="SourceAlpha" type="matrix" values="0 0 0 0 0 0 0 0 0 0 0 0 0 0 0 0 0 0 127 0" result="hardAlpha"/>
<feOffset dy="5"/>
<feGaussianBlur stdDeviation="7.5"/>
<feComposite in2="hardAlpha" operator="arithmetic" k2="-1" k3="1"/>
<feColorMatrix type="matrix" values="0 0 0 0 1 0 0 0 0 1 0 0 0 0 1 0 0 0 0.15 0"/>
<feBlend mode="normal" in2="shape" result="effect1_innerShadow_67_619"/>
</filter>
<filter id="filter1_f_67_619" x="0.572266" y="28.5152" width="63.8711" height="51.4848" filterUnits="userSpaceOnUse" color-interpolation-filters="sRGB">
<feFlood flood-opacity="0" result="BackgroundImageFix"/>
<feBlend mode="normal" in="SourceGraphic" in2="BackgroundImageFix" result="shape"/>
<feGaussianBlur stdDeviation="10" result="effect1_foregroundBlur_67_619"/>
</filter>
</defs>
</svg>
