<svg width="65" height="80" viewBox="0 0 65 80" fill="none" xmlns="http://www.w3.org/2000/svg">
<g filter="url(#filter0_i_67_595)">
<rect x="2" width="60" height="60" rx="15" fill="#A8FF78" fill-opacity="0.05"/>
</g>
<g filter="url(#filter1_f_67_595)">
<path fill-rule="evenodd" clip-rule="evenodd" d="M44.4434 60H20.5723C20.8137 53.6163 26.065 48.5152 32.5078 48.5152C38.9506 48.5152 44.202 53.6163 44.4434 60Z" fill="#A8FF78" fill-opacity="0.5"/>
</g>
<path d="M40.8167 16.9L40.7 23.2167C40.6833 24.0833 41.2334 25.2333 41.9334 25.75L46.0667 28.8833C48.7167 30.8833 48.2834 33.3333 45.1167 34.3333L39.7334 36.0167C38.8334 36.3 37.8834 37.2833 37.6501 38.2L36.3667 43.1C35.35 46.9667 32.8167 47.35 30.7167 43.95L27.7833 39.2C27.25 38.3333 25.9833 37.6833 24.9833 37.7333L19.4167 38.0167C15.4334 38.2167 14.3 35.9167 16.9 32.8833L20.2 29.05C20.8167 28.3333 21.1 27 20.8167 26.1L19.1334 20.7167C18.1501 17.55 19.9167 15.8 23.0667 16.8333L27.9834 18.45C28.8167 18.7167 30.0667 18.5333 30.7667 18.0167L35.9001 14.3167C38.6667 12.3167 40.8833 13.4833 40.8167 16.9Z" fill="#A8FF78"/>
<path opacity="0.4" d="M47.7333 44.1167L42.6832 39.0667C42.1999 38.5833 41.3999 38.5833 40.9166 39.0667C40.4332 39.55 40.4332 40.35 40.9166 40.8333L45.9666 45.8833C46.2166 46.1333 46.5332 46.25 46.8499 46.25C47.1666 46.25 47.4833 46.1333 47.7333 45.8833C48.2166 45.4 48.2166 44.6 47.7333 44.1167Z" fill="#A8FF78"/>
<defs>
<filter id="filter0_i_67_595" x="2" y="0" width="60" height="65" filterUnits="userSpaceOnUse" color-interpolation-filters="sRGB">
<feFlood flood-opacity="0" result="BackgroundImageFix"/>
<feBlend mode="normal" in="SourceGraphic" in2="BackgroundImageFix" result="shape"/>
<feColorMatrix in="SourceAlpha" type="matrix" values="0 0 0 0 0 0 0 0 0 0 0 0 0 0 0 0 0 0 127 0" result="hardAlpha"/>
<feOffset dy="5"/>
<feGaussianBlur stdDeviation="7.5"/>
<feComposite in2="hardAlpha" operator="arithmetic" k2="-1" k3="1"/>
<feColorMatrix type="matrix" values="0 0 0 0 1 0 0 0 0 1 0 0 0 0 1 0 0 0 0.15 0"/>
<feBlend mode="normal" in2="shape" result="effect1_innerShadow_67_595"/>
</filter>
<filter id="filter1_f_67_595" x="0.572266" y="28.5152" width="63.8712" height="51.4848" filterUnits="userSpaceOnUse" color-interpolation-filters="sRGB">
<feFlood flood-opacity="0" result="BackgroundImageFix"/>
<feBlend mode="normal" in="SourceGraphic" in2="BackgroundImageFix" result="shape"/>
<feGaussianBlur stdDeviation="10" result="effect1_foregroundBlur_67_595"/>
</filter>
</defs>
</svg>
