<svg width="65" height="80" viewBox="0 0 65 80" fill="none" xmlns="http://www.w3.org/2000/svg">
<g filter="url(#filter0_i_67_583)">
<rect x="2" width="60" height="60" rx="15" fill="#A8FF78" fill-opacity="0.05"/>
</g>
<g filter="url(#filter1_f_67_583)">
<path fill-rule="evenodd" clip-rule="evenodd" d="M44.4434 60H20.5723C20.8137 53.6163 26.065 48.5151 32.5078 48.5151C38.9506 48.5151 44.202 53.6163 44.4434 60Z" fill="#A8FF78" fill-opacity="0.5"/>
</g>
<path opacity="0.4" d="M28.6 13.5167L19.4333 16.95C17.6833 17.6167 16.25 19.6833 16.25 21.5667V35.0667C16.25 36.4167 17.1333 38.2 18.2167 39L27.3833 45.85C29 47.0667 31.65 47.0667 33.2667 45.85L42.4333 39C43.5167 38.1833 44.4 36.4167 44.4 35.0667V21.5667C44.4 19.7 42.9667 17.6167 41.2167 16.9667L32.05 13.5333C31.1167 13.1667 29.55 13.1667 28.6 13.5167Z" fill="#A8FF78"/>
<path d="M38.6667 29.1833C34.5334 29.1833 31.1667 32.55 31.1667 36.6833C31.1667 40.8167 34.5334 44.1833 38.6667 44.1833C42.8 44.1833 46.1667 40.8167 46.1667 36.6833C46.1667 32.5333 42.8 29.1833 38.6667 29.1833Z" fill="#A8FF78"/>
<path d="M47 46.6667C46.55 46.6667 46.1333 46.4833 45.8166 46.1833C45.75 46.1 45.6666 46.0167 45.6166 45.9167C45.55 45.8333 45.5 45.7333 45.4666 45.6333C45.4166 45.5333 45.3833 45.4333 45.3666 45.3333C45.35 45.2167 45.3333 45.1167 45.3333 45C45.3333 44.7833 45.3833 44.5667 45.4666 44.3667C45.55 44.15 45.6666 43.9833 45.8166 43.8167C46.2 43.4333 46.7833 43.25 47.3166 43.3667C47.4333 43.3833 47.5333 43.4167 47.6333 43.4667C47.7333 43.5 47.8333 43.55 47.9166 43.6167C48.0166 43.6667 48.1 43.75 48.1833 43.8167C48.3333 43.9833 48.45 44.15 48.5333 44.3667C48.6166 44.5667 48.6666 44.7833 48.6666 45C48.6666 45.4333 48.4833 45.8667 48.1833 46.1833C48.1 46.25 48.0166 46.3167 47.9166 46.3833C47.8333 46.45 47.7333 46.5 47.6333 46.5333C47.5333 46.5833 47.4333 46.6167 47.3166 46.6333C47.2166 46.65 47.1 46.6667 47 46.6667Z" fill="#A8FF78"/>
<defs>
<filter id="filter0_i_67_583" x="2" y="0" width="60" height="65" filterUnits="userSpaceOnUse" color-interpolation-filters="sRGB">
<feFlood flood-opacity="0" result="BackgroundImageFix"/>
<feBlend mode="normal" in="SourceGraphic" in2="BackgroundImageFix" result="shape"/>
<feColorMatrix in="SourceAlpha" type="matrix" values="0 0 0 0 0 0 0 0 0 0 0 0 0 0 0 0 0 0 127 0" result="hardAlpha"/>
<feOffset dy="5"/>
<feGaussianBlur stdDeviation="7.5"/>
<feComposite in2="hardAlpha" operator="arithmetic" k2="-1" k3="1"/>
<feColorMatrix type="matrix" values="0 0 0 0 1 0 0 0 0 1 0 0 0 0 1 0 0 0 0.15 0"/>
<feBlend mode="normal" in2="shape" result="effect1_innerShadow_67_583"/>
</filter>
<filter id="filter1_f_67_583" x="0.572266" y="28.5151" width="63.8712" height="51.4848" filterUnits="userSpaceOnUse" color-interpolation-filters="sRGB">
<feFlood flood-opacity="0" result="BackgroundImageFix"/>
<feBlend mode="normal" in="SourceGraphic" in2="BackgroundImageFix" result="shape"/>
<feGaussianBlur stdDeviation="10" result="effect1_foregroundBlur_67_583"/>
</filter>
</defs>
</svg>
