<svg width="65" height="80" viewBox="0 0 65 80" fill="none" xmlns="http://www.w3.org/2000/svg">
<g filter="url(#filter0_i_67_306)">
<rect x="2" width="60" height="60" rx="15" fill="#F9898E" fill-opacity="0.05"/>
</g>
<g filter="url(#filter1_f_67_306)">
<path fill-rule="evenodd" clip-rule="evenodd" d="M44.4434 60H20.5723C20.8137 53.6163 26.065 48.5151 32.5078 48.5151C38.9506 48.5151 44.202 53.6163 44.4434 60Z" fill="#F9898E" fill-opacity="0.5"/>
</g>
<path opacity="0.8" d="M47.0677 21.9834L32.001 30.7L16.9343 21.9834C17.601 20.75 18.5677 19.6667 19.651 19.0667L28.551 14.1334C30.451 13.0667 33.551 13.0667 35.451 14.1334L44.351 19.0667C45.4343 19.6667 46.401 20.75 47.0677 21.9834Z" fill="#F9898E"/>
<path opacity="0.6" d="M32.001 30.6999V46.6666C30.751 46.6666 29.501 46.3999 28.551 45.8666L19.651 40.9333C17.6344 39.8166 15.9844 37.0166 15.9844 34.7166V25.2833C15.9844 24.2166 16.351 23.0499 16.9344 21.9833L32.001 30.6999Z" fill="#F9898E"/>
<path d="M48.0178 25.2833V34.7166C48.0178 37.0166 46.3678 39.8166 44.3511 40.9333L35.4511 45.8666C34.5011 46.3999 33.2511 46.6666 32.0011 46.6666V30.6999L47.0678 21.9833C47.6511 23.0499 48.0178 24.2166 48.0178 25.2833Z" fill="#F9898E"/>
<defs>
<filter id="filter0_i_67_306" x="2" y="0" width="60" height="65" filterUnits="userSpaceOnUse" color-interpolation-filters="sRGB">
<feFlood flood-opacity="0" result="BackgroundImageFix"/>
<feBlend mode="normal" in="SourceGraphic" in2="BackgroundImageFix" result="shape"/>
<feColorMatrix in="SourceAlpha" type="matrix" values="0 0 0 0 0 0 0 0 0 0 0 0 0 0 0 0 0 0 127 0" result="hardAlpha"/>
<feOffset dy="5"/>
<feGaussianBlur stdDeviation="7.5"/>
<feComposite in2="hardAlpha" operator="arithmetic" k2="-1" k3="1"/>
<feColorMatrix type="matrix" values="0 0 0 0 1 0 0 0 0 1 0 0 0 0 1 0 0 0 0.15 0"/>
<feBlend mode="normal" in2="shape" result="effect1_innerShadow_67_306"/>
</filter>
<filter id="filter1_f_67_306" x="0.572266" y="28.5151" width="63.8711" height="51.4849" filterUnits="userSpaceOnUse" color-interpolation-filters="sRGB">
<feFlood flood-opacity="0" result="BackgroundImageFix"/>
<feBlend mode="normal" in="SourceGraphic" in2="BackgroundImageFix" result="shape"/>
<feGaussianBlur stdDeviation="10" result="effect1_foregroundBlur_67_306"/>
</filter>
</defs>
</svg>
