<svg width="65" height="80" viewBox="0 0 65 80" fill="none" xmlns="http://www.w3.org/2000/svg">
<g filter="url(#filter0_i_67_318)">
<rect x="2" width="60" height="60" rx="15" fill="#F9898E" fill-opacity="0.05"/>
</g>
<g filter="url(#filter1_f_67_318)">
<path fill-rule="evenodd" clip-rule="evenodd" d="M44.4434 60H20.5723C20.8137 53.6163 26.065 48.5151 32.5078 48.5151C38.9506 48.5151 44.202 53.6163 44.4434 60Z" fill="#F9898E" fill-opacity="0.5"/>
</g>
<path d="M20.3333 23.3334C23.0947 23.3334 25.3333 21.0948 25.3333 18.3334C25.3333 15.572 23.0947 13.3334 20.3333 13.3334C17.5719 13.3334 15.3333 15.572 15.3333 18.3334C15.3333 21.0948 17.5719 23.3334 20.3333 23.3334Z" fill="#F9898E"/>
<path d="M43.6667 35C46.4281 35 48.6667 32.7614 48.6667 30C48.6667 27.2386 46.4281 25 43.6667 25C40.9053 25 38.6667 27.2386 38.6667 30C38.6667 32.7614 40.9053 35 43.6667 35Z" fill="#F9898E"/>
<path d="M20.3333 46.6666C23.0947 46.6666 25.3333 44.4281 25.3333 41.6666C25.3333 38.9052 23.0947 36.6666 20.3333 36.6666C17.5719 36.6666 15.3333 38.9052 15.3333 41.6666C15.3333 44.4281 17.5719 46.6666 20.3333 46.6666Z" fill="#F9898E"/>
<path opacity="0.6" d="M20.3333 37.9167C19.65 37.9167 19.0833 37.35 19.0833 36.6667V23.3334C19.0833 22.65 19.65 22.0834 20.3333 22.0834C21.0166 22.0834 21.5833 22.65 21.5833 23.3334C21.5833 26.9834 23.35 28.75 27 28.75H38.6666C39.35 28.75 39.9166 29.3167 39.9166 30C39.9166 30.6834 39.35 31.25 38.6666 31.25H27C24.7333 31.25 22.9166 30.6667 21.5833 29.5667V36.6667C21.5833 37.35 21.0166 37.9167 20.3333 37.9167Z" fill="#F9898E"/>
<defs>
<filter id="filter0_i_67_318" x="2" y="0" width="60" height="65" filterUnits="userSpaceOnUse" color-interpolation-filters="sRGB">
<feFlood flood-opacity="0" result="BackgroundImageFix"/>
<feBlend mode="normal" in="SourceGraphic" in2="BackgroundImageFix" result="shape"/>
<feColorMatrix in="SourceAlpha" type="matrix" values="0 0 0 0 0 0 0 0 0 0 0 0 0 0 0 0 0 0 127 0" result="hardAlpha"/>
<feOffset dy="5"/>
<feGaussianBlur stdDeviation="7.5"/>
<feComposite in2="hardAlpha" operator="arithmetic" k2="-1" k3="1"/>
<feColorMatrix type="matrix" values="0 0 0 0 1 0 0 0 0 1 0 0 0 0 1 0 0 0 0.15 0"/>
<feBlend mode="normal" in2="shape" result="effect1_innerShadow_67_318"/>
</filter>
<filter id="filter1_f_67_318" x="0.572266" y="28.5151" width="63.8712" height="51.4849" filterUnits="userSpaceOnUse" color-interpolation-filters="sRGB">
<feFlood flood-opacity="0" result="BackgroundImageFix"/>
<feBlend mode="normal" in="SourceGraphic" in2="BackgroundImageFix" result="shape"/>
<feGaussianBlur stdDeviation="10" result="effect1_foregroundBlur_67_318"/>
</filter>
</defs>
</svg>
