<svg width="65" height="80" viewBox="0 0 65 80" fill="none" xmlns="http://www.w3.org/2000/svg">
<g filter="url(#filter0_i_67_406)">
<rect x="2" width="60" height="60" rx="15" fill="#F9898E" fill-opacity="0.05"/>
</g>
<g filter="url(#filter1_f_67_406)">
<path fill-rule="evenodd" clip-rule="evenodd" d="M44.4434 60H20.5723C20.8137 53.6163 26.065 48.5151 32.5078 48.5151C38.9506 48.5151 44.202 53.6163 44.4434 60Z" fill="#F9898E" fill-opacity="0.5"/>
</g>
<path opacity="0.6" d="M48.6666 30V38.3333C48.6666 43.3333 45.3333 46.6666 40.3333 46.6666H23.6666C18.6666 46.6666 15.3333 43.3333 15.3333 38.3333V30C15.3333 25.4666 18.0666 22.3 22.3166 21.7666C22.75 21.7 23.2 21.6666 23.6666 21.6666H40.3333C40.7666 21.6666 41.1833 21.6833 41.5833 21.7499C45.8833 22.2499 48.6666 25.4333 48.6666 30Z" fill="#F9898E"/>
<path d="M41.5833 21.75C41.1833 21.6834 40.7667 21.6667 40.3333 21.6667H23.6667C23.2 21.6667 22.75 21.7001 22.3167 21.7667C22.55 21.3001 22.8833 20.8667 23.2833 20.4667L28.7 15.0334C30.9833 12.7667 34.6833 12.7667 36.9666 15.0334L39.8833 17.9834C40.95 19.0334 41.5167 20.3667 41.5833 21.75Z" fill="#F9898E"/>
<path d="M48.6666 30.8334H43.6666C41.8333 30.8334 40.3333 32.3334 40.3333 34.1667C40.3333 36 41.8333 37.5 43.6666 37.5H48.6666" fill="#F9898E"/>
<defs>
<filter id="filter0_i_67_406" x="2" y="0" width="60" height="65" filterUnits="userSpaceOnUse" color-interpolation-filters="sRGB">
<feFlood flood-opacity="0" result="BackgroundImageFix"/>
<feBlend mode="normal" in="SourceGraphic" in2="BackgroundImageFix" result="shape"/>
<feColorMatrix in="SourceAlpha" type="matrix" values="0 0 0 0 0 0 0 0 0 0 0 0 0 0 0 0 0 0 127 0" result="hardAlpha"/>
<feOffset dy="5"/>
<feGaussianBlur stdDeviation="7.5"/>
<feComposite in2="hardAlpha" operator="arithmetic" k2="-1" k3="1"/>
<feColorMatrix type="matrix" values="0 0 0 0 1 0 0 0 0 1 0 0 0 0 1 0 0 0 0.15 0"/>
<feBlend mode="normal" in2="shape" result="effect1_innerShadow_67_406"/>
</filter>
<filter id="filter1_f_67_406" x="0.572266" y="28.5151" width="63.8712" height="51.4849" filterUnits="userSpaceOnUse" color-interpolation-filters="sRGB">
<feFlood flood-opacity="0" result="BackgroundImageFix"/>
<feBlend mode="normal" in="SourceGraphic" in2="BackgroundImageFix" result="shape"/>
<feGaussianBlur stdDeviation="10" result="effect1_foregroundBlur_67_406"/>
</filter>
</defs>
</svg>
