<svg width="100" height="100" viewBox="0 0 100 100" fill="none" xmlns="http://www.w3.org/2000/svg">
<g id="card-pos">
<g id="vuesax/bold/card-pos">
<g id="card-pos_2">
<path id="Vector" d="M63.2775 19.7034L21.2125 61.7684C19.6067 63.3742 17.0217 63.3742 15.455 61.7684H15.4158C9.97167 56.2851 9.97167 47.4334 15.4158 41.9892L43.42 13.9851C48.9033 8.50173 57.755 8.50173 63.2383 13.9851C64.8442 15.5126 64.8442 18.1367 63.2775 19.7034Z" fill="url(#paint0_linear_42_243)"/>
<path id="Vector_2" d="M84.545 35.2527L72.5992 23.3069C70.9933 21.7011 68.4083 21.7011 66.8417 23.3069L24.7767 65.3719C23.1708 66.9386 23.1708 69.5236 24.7767 71.1294L36.7225 83.1144C42.2058 88.5586 51.0575 88.5586 56.5408 83.1144L84.5058 55.1102C90.0675 49.6269 90.0675 40.7361 84.545 35.2527ZM52.9767 70.6202L48.2375 75.3986C47.2583 76.3777 45.6525 76.3777 44.6342 75.3986C43.655 74.4194 43.655 72.8136 44.6342 71.7952L49.4125 67.0169C50.3525 66.0769 51.9975 66.0769 52.9767 67.0169C53.9558 67.9961 53.9558 69.6802 52.9767 70.6202ZM68.5258 55.0711L58.9692 64.6669C57.99 65.6069 56.3842 65.6069 55.3658 64.6669C54.3867 63.6877 54.3867 62.0819 55.3658 61.0636L64.9617 51.4677C65.9017 50.5277 67.5467 50.5277 68.5258 51.4677C69.505 52.4861 69.505 54.0919 68.5258 55.0711Z" fill="url(#paint1_linear_42_243)"/>
</g>
</g>
<path id="Vector_3" opacity="0.2" d="M8 93H91.3333" stroke="white" stroke-width="4" stroke-linecap="round" stroke-linejoin="round"/>
</g>
<defs>
<linearGradient id="paint0_linear_42_243" x1="11.3327" y1="9.87256" x2="65.1678" y2="12.9135" gradientUnits="userSpaceOnUse">
<stop stop-color="#A8FF78"/>
<stop offset="1" stop-color="#F9898E"/>
</linearGradient>
<linearGradient id="paint1_linear_42_243" x1="23.5723" y1="22.1025" x2="89.5647" y2="25.83" gradientUnits="userSpaceOnUse">
<stop stop-color="#A8FF78"/>
<stop offset="1" stop-color="#F9898E"/>
</linearGradient>
</defs>
</svg>
