<svg width="100" height="100" viewBox="0 0 100 100" fill="none" xmlns="http://www.w3.org/2000/svg">
<g id="share">
<g id="vuesax/twotone/share">
<g id="share_2">
<path id="Vector" opacity="0.2" d="M70.6667 23.2693C79 29.061 84.75 38.2693 85.9167 48.8943" stroke="white" stroke-width="4" stroke-linecap="round" stroke-linejoin="round"/>
<path id="Vector_2" opacity="0.2" d="M14.5417 49.1025C15.625 38.5192 21.2917 29.3109 29.5417 23.4775" stroke="white" stroke-width="4" stroke-linecap="round" stroke-linejoin="round"/>
<path id="Vector_3" opacity="0.2" d="M34.125 84.811C38.9583 87.2694 44.4583 88.6444 50.25 88.6444C55.8333 88.6444 61.0833 87.3944 65.7917 85.1027" stroke="white" stroke-width="4" stroke-linecap="round" stroke-linejoin="round"/>
<path id="Union" fill-rule="evenodd" clip-rule="evenodd" d="M50.25 29.6444C56.6473 29.6444 61.8333 24.4584 61.8333 18.0611C61.8333 11.6638 56.6473 6.47778 50.25 6.47778C43.8527 6.47778 38.6667 11.6638 38.6667 18.0611C38.6667 24.4584 43.8527 29.6444 50.25 29.6444ZM20.125 80.5609C26.5223 80.5609 31.7084 75.3748 31.7084 68.9775C31.7084 62.5802 26.5223 57.3942 20.125 57.3942C13.7277 57.3942 8.54169 62.5802 8.54169 68.9775C8.54169 75.3748 13.7277 80.5609 20.125 80.5609ZM91.4584 68.9775C91.4584 75.3748 86.2723 80.5609 79.875 80.5609C73.4777 80.5609 68.2917 75.3748 68.2917 68.9775C68.2917 62.5802 73.4777 57.3942 79.875 57.3942C86.2723 57.3942 91.4584 62.5802 91.4584 68.9775Z" fill="url(#paint0_linear_42_138)"/>
</g>
</g>
</g>
<defs>
<linearGradient id="paint0_linear_42_138" x1="8.54169" y1="6.47778" x2="92.5152" y2="11.7853" gradientUnits="userSpaceOnUse">
<stop stop-color="#A8FF78"/>
<stop offset="1" stop-color="#F9898E"/>
</linearGradient>
</defs>
</svg>
